<?xml version="1.0" encoding="UTF-8"?>
<svg version="1.1" xmlns="http://www.w3.org/2000/svg" width="1080" height="1080">
<path d="M0 0 C356.4 0 712.8 0 1080 0 C1080 356.4 1080 712.8 1080 1080 C723.6 1080 367.2 1080 0 1080 C0 723.6 0 367.2 0 0 Z " fill="#000000" transform="translate(0,0)"/>
<path d="M0 0 C66.66 0 133.32 0 202 0 C202 34.98 202 69.96 202 106 C135.34 106 68.68 106 0 106 C0 71.02 0 36.04 0 0 Z " fill="#FDFDFD" transform="translate(549,464)"/>
<path d="M0 0 C3.3 -0.12375 6.6 -0.2475 10 -0.375 C11.02351563 -0.42962402 12.04703125 -0.48424805 13.1015625 -0.54052734 C19.18833771 -0.65006103 22.65221621 0.40003295 27.34375 4.31005859 C32.93689941 10.01698374 33.35069574 14.90002844 33.28125 22.6953125 C32.77994147 28.58568769 30.74953567 32.29532422 26.5625 36.375 C17.39005902 42.19166989 12.88183153 40 0 40 C0 26.8 0 13.6 0 0 Z " fill="#F8F8F8" transform="translate(451,491)"/>
<path d="M0 0 C3.63 0 7.26 0 11 0 C13.41780096 2.44143868 14.36765347 3.72008199 15.75 6.6875 C16.28258423 7.6940564 16.28258423 7.6940564 16.82592773 8.72094727 C17.55597421 10.10873739 18.26814736 11.50607264 18.96240234 12.91210938 C20.24950444 15.50206164 21.63680223 18.02915697 23.03637695 20.55957031 C24.38382162 23.02555755 25.68775188 25.51510462 27 28 C27.33 18.76 27.66 9.52 28 0 C30.64 0 33.28 0 36 0 C36 13.53 36 27.06 36 41 C32.04 41 28.08 41 24 41 C23.5875 40.14019531 23.175 39.28039062 22.75 38.39453125 C19.060883 30.84336989 15.09000304 23.65212836 10.6015625 16.546875 C9 14 9 14 8 12 C7.67 21.24 7.34 30.48 7 40 C4.69 40 2.38 40 0 40 C0 26.8 0 13.6 0 0 Z " fill="#F2F2F2" transform="translate(364,491)"/>
<path d="M0 0 C3.96 0 7.92 0 12 0 C13.51488814 4.23061631 15.02637429 8.46242891 16.53491211 12.6953125 C17.04703183 14.13085564 17.56003053 15.56608556 18.07397461 17.00097656 C20.91897524 24.94592476 23.67315738 32.88384586 26 41 C22.7 41 19.4 41 16 41 C14.68373308 37.38026598 14 34.90432869 14 31 C8.72 31 3.44 31 -2 31 C-2.33 33.31 -2.66 35.62 -3 38 C-3.33 38.99 -3.66 39.98 -4 41 C-6.97 41 -9.94 41 -13 41 C-11.82774395 32.99550417 -9.07772518 25.51959698 -6 18.0625 C-3.5796086 12.17480187 -1.79783351 6.10115842 0 0 Z " fill="#F1F1F1" transform="translate(506,491)"/>
<path d="M0 0 C3.50625 -0.0825 7.0125 -0.165 10.625 -0.25 C11.71893066 -0.28641602 12.81286133 -0.32283203 13.93994141 -0.36035156 C19.80562707 -0.42706822 23.45202218 -0.10322289 28 4 C30.70429572 6.86506065 31.46974727 8.88596779 31.5625 12.8125 C31.41360612 17.61255515 30.08382683 20.11938635 26.8984375 23.625 C22.05892867 27.13015866 16.89768414 27.27043584 11.125 27.125 C10.43664062 27.11597656 9.74828125 27.10695313 9.0390625 27.09765625 C7.35922162 27.07432513 5.67956254 27.03846326 4 27 C4 31.29 4 35.58 4 40 C2.68 40 1.36 40 0 40 C0 26.8 0 13.6 0 0 Z " fill="#F6F6F6" transform="translate(591,496)"/>
<path d="M0 0 C7.92 0 15.84 0 24 0 C24 2.31 24 4.62 24 7 C19.05 7 14.1 7 9 7 C9 9.64 9 12.28 9 15 C13.62 15 18.24 15 23 15 C23 17.64 23 20.28 23 23 C18.38 23 13.76 23 9 23 C9 26.3 9 29.6 9 33 C13.95 33 18.9 33 24 33 C24 35.64 24 38.28 24 41 C16.08 41 8.16 41 0 41 C0 27.47 0 13.94 0 0 Z " fill="#E7E7E7" transform="translate(414,491)"/>
<path d="M0 0 C1.65 0 3.3 0 5 0 C9.48334188 8.75707297 13.7904903 17.54290578 17.65258789 26.59375 C18.92023276 29.56069301 20.2342172 32.45981951 21.69921875 35.3359375 C23 38 23 38 23 40 C21.35 40 19.7 40 18 40 C16.68 36.7 15.36 33.4 14 30 C2.615 29.505 2.615 29.505 -9 29 C-9.99 31.97 -10.98 34.94 -12 38 C-12.33 38.66 -12.66 39.32 -13 40 C-14.32 40 -15.64 40 -17 40 C-16.33686825 35.20156219 -14.42769409 31.2006599 -12.40234375 26.85546875 C-12.04862198 26.08568192 -11.69490021 25.31589508 -11.33045959 24.52278137 C-10.20446314 22.0753514 -9.07110163 19.63141528 -7.9375 17.1875 C-7.17073482 15.52431396 -6.40445328 13.86090486 -5.63867188 12.19726562 C-3.76470774 8.12890495 -1.88413284 4.06366073 0 0 Z " fill="#161616" transform="translate(645,496)"/>
<path d="M0 0 C3.50625 -0.0825 7.0125 -0.165 10.625 -0.25 C11.71893066 -0.28641602 12.81286133 -0.32283203 13.93994141 -0.36035156 C19.80562707 -0.42706822 23.45202218 -0.10322289 28 4 C30.70429572 6.86506065 31.46974727 8.88596779 31.5625 12.8125 C31.41360612 17.61255515 30.08382683 20.11938635 26.8984375 23.625 C22.05892867 27.13015866 16.89768414 27.27043584 11.125 27.125 C10.43664062 27.11597656 9.74828125 27.10695313 9.0390625 27.09765625 C7.35922162 27.07432513 5.67956254 27.03846326 4 27 C4 31.29 4 35.58 4 40 C2.68 40 1.36 40 0 40 C0 26.8 0 13.6 0 0 Z M4 3 C4 9.6 4 16.2 4 23 C7.774375 23.12375 7.774375 23.12375 11.625 23.25 C12.40568848 23.28641602 13.18637695 23.32283203 13.99072266 23.36035156 C19.1007707 23.4407839 21.951248 22.36357859 26 19 C27.61201223 15.77597554 27.59436848 12.48607133 27 9 C24.81020178 6.05941381 23.32051897 4.36681082 19.75 3.375 C16.5317827 2.93615219 13.43475142 2.90469948 10.1875 2.9375 C7.1246875 2.9684375 7.1246875 2.9684375 4 3 Z " fill="#0C0C0C" transform="translate(591,496)"/>
<path d="M0 0 C10.33333333 0 10.33333333 0 14 3 C16.42136226 6.63204338 16.32929639 8.55143835 16.375 12.875 C16.40335937 14.08929687 16.43171875 15.30359375 16.4609375 16.5546875 C15.92424928 20.56620451 14.79258494 22.13943078 12 25 C8.00843894 27.99367079 5.6200607 27 0 27 C0 18.09 0 9.18 0 0 Z " fill="#0F0F0F" transform="translate(459,498)"/>
<path d="M0 0 C2.30541992 -0.26904297 2.30541992 -0.26904297 5 0 C6.66918945 1.80419922 6.66918945 1.80419922 8.11328125 4.3046875 C8.9012207 5.64466797 8.9012207 5.64466797 9.70507812 7.01171875 C10.23552734 7.95660156 10.76597656 8.90148437 11.3125 9.875 C11.86228516 10.81214844 12.41207031 11.74929688 12.97851562 12.71484375 C17 19.65877329 17 19.65877329 17 22 C17.66 22 18.32 22 19 22 C19.22945312 21.18273437 19.45890625 20.36546875 19.6953125 19.5234375 C21.2932747 15.2079827 23.45658043 11.52408461 25.875 7.625 C26.30941406 6.88894531 26.74382813 6.15289062 27.19140625 5.39453125 C27.62066406 4.69972656 28.04992187 4.00492187 28.4921875 3.2890625 C28.87745605 2.65693848 29.26272461 2.02481445 29.65966797 1.37353516 C30.10197754 0.92026855 30.54428711 0.46700195 31 0 C32.32 0 33.64 0 35 0 C33.73130096 3.42394982 32.2625283 6.31754658 30.21484375 9.3359375 C23.44856642 19.66817034 19.00814153 27.41102714 20 40 C18.68 40 17.36 40 16 40 C15.99613281 38.53240234 15.99613281 38.53240234 15.9921875 37.03515625 C15.77940093 29.82169167 15.50202883 24.3074512 10.8984375 18.46875 C8.34445927 15.14752728 6.26050752 11.59966275 4.125 8 C3.71958984 7.32775391 3.31417969 6.65550781 2.89648438 5.96289062 C0 1.12879235 0 1.12879235 0 0 Z " fill="#151515" transform="translate(674,496)"/>
<path d="M0 0 C3.23877657 3.23877657 4.83208324 6.46818785 6.6875 10.5625 C7.00783203 11.24763672 7.32816406 11.93277344 7.65820312 12.63867188 C10 17.72671242 10 17.72671242 10 20 C3.73 20 -2.54 20 -9 20 C-6.03 13.4 -3.06 6.8 0 0 Z " fill="#F3F3F3" transform="translate(647,501)"/>
<path d="M0 0 C0.33 0 0.66 0 1 0 C1.33 6.27 1.66 12.54 2 19 C2.66 19.33 3.32 19.66 4 20 C4 20.99 4 21.98 4 23 C6.56406672 22.91262287 9.12482216 22.80570881 11.6875 22.6875 C12.7693457 22.65366211 12.7693457 22.65366211 13.87304688 22.61914062 C18.47551098 22.38796663 21.05821412 21.53552714 25 19 C25.99 19.33 26.98 19.66 28 20 C27.05672702 23.03943515 26.00367484 23.99760708 23.3125 25.75 C17.35873122 28.10351971 10.29976679 27.21891082 4 27 C4 31.29 4 35.58 4 40 C2.68 40 1.36 40 0 40 C0 26.8 0 13.6 0 0 Z " fill="#171717" transform="translate(591,496)"/>
<path d="M0 0 C0.33 0.99 0.66 1.98 1 3 C1.66 3 2.32 3 3 3 C0.83324088 9.95643717 -1.90883522 16.39994546 -5 23 C1.93 23.33 8.86 23.66 16 24 C16 24.33 16 24.66 16 25 C8.41 25 0.82 25 -7 25 C-7.99 27.97 -8.98 30.94 -10 34 C-10.33 34.66 -10.66 35.32 -11 36 C-12.32 36 -13.64 36 -15 36 C-14.34493863 31.57000873 -12.70093699 27.76258324 -10.83984375 23.73046875 C-10.53051407 23.04946609 -10.22118439 22.36846344 -9.90248108 21.66682434 C-8.91906176 19.50477304 -7.92840527 17.34612904 -6.9375 15.1875 C-6.2670967 13.71701626 -5.59716957 12.24631534 -4.92773438 10.77539062 C-3.29065903 7.18105558 -1.64708751 3.58975736 0 0 Z " fill="#272727" transform="translate(643,500)"/>
<path d="M0 0 C1.974667 2.96200051 2.71955354 5.09771632 3.625 8.5 C3.88539063 9.4590625 4.14578125 10.418125 4.4140625 11.40625 C5 14 5 14 5 17 C1.7 17 -1.6 17 -5 17 C-4.35841048 14.35307023 -3.71195217 11.70750071 -3.0625 9.0625 C-2.88009766 8.30775391 -2.69769531 7.55300781 -2.50976562 6.77539062 C-1.11328125 1.11328125 -1.11328125 1.11328125 0 0 Z " fill="#0F0F0F" transform="translate(512,498)"/>
<path d="M0 0 C1.32 0 2.64 0 4 0 C2.51401073 3.98481701 0.66163296 7.61531744 -1.4375 11.3125 C-2.03433594 12.38113281 -2.63117187 13.44976562 -3.24609375 14.55078125 C-4.11427734 15.76314453 -4.11427734 15.76314453 -5 17 C-5.99 17 -6.98 17 -8 17 C-8.66 17.33 -9.32 17.66 -10 18 C-8.46608345 13.80149646 -6.41742141 10.00962269 -4.125 6.1875 C-3.78597656 5.59001953 -3.44695313 4.99253906 -3.09765625 4.37695312 C-2.0703125 2.66796875 -2.0703125 2.66796875 0 0 Z " fill="#171717" transform="translate(705,496)"/>
<path d="M0 0 C-0.85714286 8.57142857 -0.85714286 8.57142857 -3 12 C-4.32 12 -5.64 12 -7 12 C-6.39053099 8.44476411 -5.58244911 5.25281205 -4 2 C-1 0 -1 0 0 0 Z " fill="#1A1A1A" transform="translate(635,524)"/>
<path d="M0 0 C1.65 0 3.3 0 5 0 C5.66 1.65 6.32 3.3 7 5 C5.35 4.67 3.7 4.34 2 4 C2 4.99 2 5.98 2 7 C1.01 7 0.02 7 -1 7 C-0.67 4.69 -0.34 2.38 0 0 Z " fill="#101010" transform="translate(645,496)"/>
<path d="M0 0 C1.32 0 2.64 0 4 0 C2.8141763 3.37503669 1.72426311 5.64722731 -1 8 C-1.66 7.67 -2.32 7.34 -3 7 C-1.125 1.125 -1.125 1.125 0 0 Z " fill="#161616" transform="translate(705,496)"/>
<path d="M0 0 C1.9375 0.75 1.9375 0.75 4 2 C4.75 4.125 4.75 4.125 5 6 C3.35 6 1.7 6 0 6 C-0.38218767 4.34385343 -0.71395102 2.67542976 -1 1 C-0.67 0.67 -0.34 0.34 0 0 Z " fill="#252525" transform="translate(663,530)"/>
<path d="M0 0 C0.99 0 1.98 0 3 0 C2.67 1.98 2.34 3.96 2 6 C1.01 6 0.02 6 -1 6 C-1.99 6.495 -1.99 6.495 -3 7 C-1.125 2.25 -1.125 2.25 0 0 Z " fill="#222222" transform="translate(701,502)"/>
<path d="M0 0 C1.89213369 2.38573379 3.02391783 4.07175348 4 7 C2.68 7.33 1.36 7.66 0 8 C0 5.36 0 2.72 0 0 Z " fill="#222222" transform="translate(371,501)"/>
<path d="M0 0 C0.33 0.99 0.66 1.98 1 3 C0.01 3.99 -0.98 4.98 -2 6 C-2.99 5.67 -3.98 5.34 -5 5 C-3.35 3.35 -1.7 1.7 0 0 Z " fill="#0D0D0D" transform="translate(698,511)"/>
<path d="M0 0 C0.33 0.99 0.66 1.98 1 3 C1.66 3 2.32 3 3 3 C2.34 4.32 1.68 5.64 1 7 C0.01 6.67 -0.98 6.34 -2 6 C-1.34 4.02 -0.68 2.04 0 0 Z " fill="#2B2B2B" transform="translate(643,500)"/>
<path d="M0 0 C2 3 2 3 2 6 C1.34 6 0.68 6 0 6 C-0.66 6.66 -1.32 7.32 -2 8 C-1.125 1.125 -1.125 1.125 0 0 Z " fill="#3A3A3A" transform="translate(512,498)"/>
</svg>
